<svg xmlns="http://www.w3.org/2000/svg" width="14" height="12">
    <path fill="#2F2F2F" fill-rule="evenodd" d="M.223 5.439L5.279.23c.145-.148.337-.23.542-.23.206 0 .398.082.542.23l.459.473c.144.149.224.347.224.558 0 .212-.08.417-.224.565L3.873 4.872h9.371c.422 0 .756.341.756.776v.669c0 .435-.334.81-.756.81H3.839l2.983 3.063c.144.149.224.341.224.553 0 .211-.08.407-.224.556l-.459.471c-.144.149-.337.23-.542.23-.205 0-.397-.082-.542-.231L.223 6.56C.079 6.411-.001 6.211 0 6c-.001-.212.079-.412.223-.561z"/>
</svg>
