<svg xmlns="http://www.w3.org/2000/svg" width="14" height="12">
    <path fill="#2F2F2F" fill-rule="evenodd" d="M13.776 5.439L8.72.23C8.576.082 8.384 0 8.179 0c-.206 0-.398.082-.542.23l-.459.473c-.144.149-.224.347-.224.558 0 .212.08.417.224.565l2.949 3.046H.756c-.422 0-.756.341-.756.776v.669c0 .435.334.81.756.81h9.405L7.178 10.19c-.144.149-.224.341-.224.553 0 .211.08.407.224.556l.459.471c.144.149.336.23.542.23.205 0 .397-.082.542-.231l5.056-5.209c.144-.149.224-.349.223-.56.001-.212-.079-.412-.224-.561z"/>
</svg>
