<svg version="1.0" xmlns="http://www.w3.org/2000/svg" width="426.667" height="426.667" viewBox="0 0 320 320"><path d="M145.3 4c-4.9 2.9-6.1 6-6.2 15.8l-.1 5.4-3.2-2.7c-4.7-4-7.4-4.7-11.9-3.4-2.1.7-4.5 1.9-5.3 2.8-2.9 3.2-13.5 24.9-15 30.6-.2.5-.6 1.7-.9 2.5-5.1 11.9-9.6 35.6-9.5 49.1.1 10.9.5 12.5 7.4 32 .3.9-.6 2.7-2.4 4.5-4.3 4.3-10.6 13.2-13.5 18.9-10.4 20.9-15.1 52.5-12.1 81.1l.9 9.9c.1 1.1.4 2.7.7 3.5.3.8 1.4 4.6 2.4 8.5C81.5 282 95 299.1 111.7 307c14.2 6.8 18.3 8 35.8 9.9 7.8.9 32.1.5 33.7-.5.6-.4 2.7-.9 4.7-1.1 6-.6 17.2-4.3 24.6-8.1 10.1-5.3 21.9-17.3 26.6-27.2 7.8-16.2 10.9-30.9 11-53 .3-37.6-10.2-69.5-28.8-87.8-3.2-3.1-3.3-3.3-1.8-6.1 8.3-16.1 10.1-37.1 5-58.6-2-8.7-5.7-18.9-10-28-4.4-9.1-12.9-22.9-16.2-26.3-7.3-7.3-18.7-3.5-20.9 7l-.9 4.3-4.8-9.4c-2.6-5.1-5.9-11-7.2-13.2-4.3-6.7-11.1-8.7-17.2-4.9z"/></svg>