<?xml version="1.0" standalone="no"?>
<!DOCTYPE svg PUBLIC "-//W3C//DTD SVG 20010904//EN"
 "http://www.w3.org/TR/2001/REC-SVG-20010904/DTD/svg10.dtd">
<svg version="1.0"
  xmlns="http://www.w3.org/2000/svg" width="320.000000pt" height="320.000000pt" viewBox="0 0 320.000000 320.000000" preserveAspectRatio="xMidYMid meet">
  <metadata>
Created by potrace 1.11, written by Peter Selinger 2001-2013
  </metadata>
  <g transform="translate(0.000000,320.000000) scale(0.100000,-0.100000)" fill="#000000" stroke="none">
    <path d="M1453 3160 c-49 -29 -61 -60 -62 -158 l-1 -54 -32 27 c-47 40 -74 47
-119 34 -21 -7 -45 -19 -53 -28 -29 -32 -135 -249 -150 -306 -2 -5 -6 -17 -9
-25 -51 -119 -96 -356 -95 -491 1 -109 5 -125 74 -320 3 -9 -6 -27 -24 -45
-43 -43 -106 -132 -135 -189 -104 -209 -151 -525 -121 -811 4 -44 8 -88 9 -99
1 -11 4 -27 7 -35 3 -8 14 -46 24 -85 49 -195 184 -366 351 -445 142 -68 183
-80 358 -99 78 -9 321 -5 337 5 6 4 27 9 47 11 60 6 172 43 246 81 101 53 219
173 266 272 78 162 109 309 110 530 3 376 -102 695 -288 878 -32 31 -33 33
-18 61 83 161 101 371 50 586 -20 87 -57 189 -100 280 -44 91 -129 229 -162
263 -73 73 -187 35 -209 -70 l-9 -43 -48 94 c-26 51 -59 110 -72 132 -43 67
-111 87 -172 49z"/>
  </g>
</svg>
