<svg xmlns="http://www.w3.org/2000/svg" width="21" height="32"><path fill="#fff" fill-rule="evenodd" d="M10.5 32C4.71 32 0 27.261 0 21.437V10.563C0 4.739 4.71 0 10.5 0 16.289 0 21 4.739 21 10.563v10.906C21 27.276 16.289 32 10.5 32zm8.525-21.437c0-4.746-3.824-8.607-8.525-8.607-4.701 0-8.525 3.861-8.525 8.607v10.873c0 4.747 3.824 8.608 8.525 8.608 4.701 0 8.525-3.847 8.525-8.575V10.563zM10.5 13.465a.983.983 0 01-.987-.978V9.063c0-.54.442-.977.987-.977.545 0 .987.437.987.977v3.424c0 .54-.442.978-.987.978z"/></svg>