<svg xmlns="http://www.w3.org/2000/svg" width="30" height="27"><path fill="#2c2c2c" fill-rule="evenodd" d="M29.049 17.75c-.634 2.121-1.806 4.022-3.517 5.707-1.403 1.38-3.122 2.516-5.159 3.413-.763.336-1.646 0-2.003-.765l-1.108-2.385c-.369-.796-.028-1.75.763-2.105 1.72-.775 3.006-1.757 3.855-2.942 1.077-1.503 1.646-3.502 1.705-5.999h-4.477c-.849 0-1.538-.703-1.538-1.568V1.568C17.57.703 18.259 0 19.108 0h9.354C29.311 0 30 .703 30 1.568v7.498c0 3.671-.317 6.563-.951 8.684zM8.398 23.457c-1.412 1.377-3.123 2.513-5.135 3.407a1.53 1.53 0 01-2.01-.766L.149 23.72c-.369-.796-.028-1.75.763-2.105 1.72-.775 3.006-1.757 3.855-2.942 1.077-1.503 1.646-3.502 1.705-5.999H1.995c-.849 0-1.538-.703-1.538-1.568V1.568C.457.703 1.146 0 1.995 0h9.353c.85 0 1.539.703 1.539 1.568v7.498c0 3.699-.317 6.601-.951 8.706-.634 2.105-1.812 4-3.538 5.685z"/></svg>